<svg width="657" height="71" viewBox="0 0 657 71" fill="none" xmlns="http://www.w3.org/2000/svg">
<path d="M18.154 56.696C14.906 56.696 11.7933 56.2707 8.816 55.42C5.83867 54.5307 3.44133 53.39 1.624 51.998L4.814 44.922C6.554 46.1593 8.60333 47.184 10.962 47.996C13.3593 48.7693 15.776 49.156 18.212 49.156C20.068 49.156 21.5567 48.982 22.678 48.634C23.838 48.2473 24.6887 47.7253 25.23 47.068C25.7713 46.4107 26.042 45.6567 26.042 44.806C26.042 43.7233 25.6167 42.8727 24.766 42.254C23.9153 41.5967 22.794 41.0747 21.402 40.688C20.01 40.2627 18.4633 39.876 16.762 39.528C15.0993 39.1413 13.4173 38.6773 11.716 38.136C10.0533 37.5947 8.526 36.8987 7.134 36.048C5.742 35.1973 4.60133 34.076 3.712 32.684C2.86133 31.292 2.436 29.5133 2.436 27.348C2.436 25.028 3.05467 22.9207 4.292 21.026C5.568 19.0927 7.46267 17.5653 9.976 16.444C12.528 15.284 15.718 14.704 19.546 14.704C22.098 14.704 24.6113 15.0133 27.086 15.632C29.5607 16.212 31.7453 17.1013 33.64 18.3L30.74 25.434C28.8453 24.3513 26.9507 23.5587 25.056 23.056C23.1613 22.5147 21.3053 22.244 19.488 22.244C17.6707 22.244 16.182 22.4567 15.022 22.882C13.862 23.3073 13.0307 23.868 12.528 24.564C12.0253 25.2213 11.774 25.9947 11.774 26.884C11.774 27.928 12.1993 28.7787 13.05 29.436C13.9007 30.0547 15.022 30.5573 16.414 30.944C17.806 31.3307 19.3333 31.7173 20.996 32.104C22.6973 32.4907 24.3793 32.9353 26.042 33.438C27.7433 33.9407 29.29 34.6173 30.682 35.468C32.074 36.3187 33.1953 37.44 34.046 38.832C34.9353 40.224 35.38 41.9833 35.38 44.11C35.38 46.3913 34.742 48.4793 33.466 50.374C32.19 52.2687 30.276 53.796 27.724 54.956C25.2107 56.116 22.0207 56.696 18.154 56.696ZM51.5443 56L38.2623 15.4H48.0063L59.5483 51.36H54.6763L66.7403 15.4H75.4403L87.0403 51.36H82.3423L94.1743 15.4H103.164L89.8823 56H79.7903L69.5243 24.448H72.1923L61.6363 56H51.5443ZM101.714 56L119.81 15.4H129.09L147.244 56H137.384L122.536 20.156H126.248L111.342 56H101.714ZM110.762 47.3L113.256 40.166H134.136L136.688 47.3H110.762ZM170.494 56.696C167.285 56.696 164.327 56.1933 161.62 55.188C158.952 54.144 156.613 52.6747 154.602 50.78C152.63 48.8853 151.084 46.662 149.962 44.11C148.88 41.558 148.338 38.7547 148.338 35.7C148.338 32.6453 148.88 29.842 149.962 27.29C151.084 24.738 152.65 22.5147 154.66 20.62C156.671 18.7253 159.03 17.2753 161.736 16.27C164.443 15.226 167.42 14.704 170.668 14.704C174.264 14.704 177.493 15.3033 180.354 16.502C183.254 17.7007 185.69 19.4407 187.662 21.722L181.63 27.29C180.161 25.7433 178.556 24.6027 176.816 23.868C175.076 23.0947 173.182 22.708 171.132 22.708C169.16 22.708 167.362 23.0173 165.738 23.636C164.114 24.2547 162.703 25.144 161.504 26.304C160.344 27.464 159.436 28.8367 158.778 30.422C158.16 32.0073 157.85 33.7667 157.85 35.7C157.85 37.5947 158.16 39.3347 158.778 40.92C159.436 42.5053 160.344 43.8973 161.504 45.096C162.703 46.256 164.095 47.1453 165.68 47.764C167.304 48.3827 169.083 48.692 171.016 48.692C172.872 48.692 174.67 48.402 176.41 47.822C178.189 47.2033 179.91 46.1787 181.572 44.748L186.908 51.534C184.704 53.1967 182.133 54.4727 179.194 55.362C176.294 56.2513 173.394 56.696 170.494 56.696ZM178.324 50.316V35.062H186.908V51.534L178.324 50.316ZM215.24 56.696C212.031 56.696 209.073 56.1933 206.366 55.188C203.698 54.144 201.359 52.6747 199.348 50.78C197.376 48.8853 195.83 46.662 194.708 44.11C193.626 41.558 193.084 38.7547 193.084 35.7C193.084 32.6453 193.626 29.842 194.708 27.29C195.83 24.738 197.396 22.5147 199.406 20.62C201.417 18.7253 203.776 17.2753 206.482 16.27C209.189 15.226 212.166 14.704 215.414 14.704C219.01 14.704 222.239 15.3033 225.1 16.502C228 17.7007 230.436 19.4407 232.408 21.722L226.376 27.29C224.907 25.7433 223.302 24.6027 221.562 23.868C219.822 23.0947 217.928 22.708 215.878 22.708C213.906 22.708 212.108 23.0173 210.484 23.636C208.86 24.2547 207.449 25.144 206.25 26.304C205.09 27.464 204.182 28.8367 203.524 30.422C202.906 32.0073 202.596 33.7667 202.596 35.7C202.596 37.5947 202.906 39.3347 203.524 40.92C204.182 42.5053 205.09 43.8973 206.25 45.096C207.449 46.256 208.841 47.1453 210.426 47.764C212.05 48.3827 213.829 48.692 215.762 48.692C217.618 48.692 219.416 48.402 221.156 47.822C222.935 47.2033 224.656 46.1787 226.318 44.748L231.654 51.534C229.45 53.1967 226.879 54.4727 223.94 55.362C221.04 56.2513 218.14 56.696 215.24 56.696ZM223.07 50.316V35.062H231.654V51.534L223.07 50.316ZM249.024 31.756H268.57V39.064H249.024V31.756ZM249.72 48.46H271.818V56H240.382V15.4H271.064V22.94H249.72V48.46ZM279.294 56V15.4H296.868C300.503 15.4 303.635 15.9993 306.264 17.198C308.894 18.358 310.924 20.04 312.354 22.244C313.785 24.448 314.5 27.0773 314.5 30.132C314.5 33.148 313.785 35.758 312.354 37.962C310.924 40.1273 308.894 41.79 306.264 42.95C303.635 44.11 300.503 44.69 296.868 44.69H284.514L288.69 40.572V56H279.294ZM305.104 56L294.954 41.268H304.988L315.254 56H305.104ZM288.69 41.616L284.514 37.208H296.346C299.246 37.208 301.412 36.5893 302.842 35.352C304.273 34.076 304.988 32.336 304.988 30.132C304.988 27.8893 304.273 26.1493 302.842 24.912C301.412 23.6747 299.246 23.056 296.346 23.056H284.514L288.69 18.59V41.616ZM338.371 56V15.4H355.945C359.579 15.4 362.711 15.9993 365.341 17.198C367.97 18.358 370 20.04 371.431 22.244C372.861 24.448 373.577 27.0773 373.577 30.132C373.577 33.148 372.861 35.758 371.431 37.962C370 40.166 367.97 41.8673 365.341 43.066C362.711 44.226 359.579 44.806 355.945 44.806H343.591L347.767 40.572V56H338.371ZM347.767 41.616L343.591 37.15H355.423C358.323 37.15 360.488 36.5313 361.919 35.294C363.349 34.0567 364.065 32.336 364.065 30.132C364.065 27.8893 363.349 26.1493 361.919 24.912C360.488 23.6747 358.323 23.056 355.423 23.056H343.591L347.767 18.59V41.616ZM380.285 56V15.4H397.859C401.493 15.4 404.625 15.9993 407.255 17.198C409.884 18.358 411.914 20.04 413.345 22.244C414.775 24.448 415.491 27.0773 415.491 30.132C415.491 33.148 414.775 35.758 413.345 37.962C411.914 40.1273 409.884 41.79 407.255 42.95C404.625 44.11 401.493 44.69 397.859 44.69H385.505L389.681 40.572V56H380.285ZM406.095 56L395.945 41.268H405.979L416.245 56H406.095ZM389.681 41.616L385.505 37.208H397.337C400.237 37.208 402.402 36.5893 403.833 35.352C405.263 34.076 405.979 32.336 405.979 30.132C405.979 27.8893 405.263 26.1493 403.833 24.912C402.402 23.6747 400.237 23.056 397.337 23.056H385.505L389.681 18.59V41.616Z" fill="white"/>
<path d="M482.994 56L465.478 15.4H475.628L490.94 51.36H484.966L500.51 15.4H509.848L492.274 56H482.994ZM513.238 56V15.4H522.634V56H513.238ZM532.269 56V15.4H550.713C555.121 15.4 559.007 16.2507 562.371 17.952C565.735 19.6147 568.364 21.954 570.259 24.97C572.154 27.986 573.101 31.5627 573.101 35.7C573.101 39.7987 572.154 43.3753 570.259 46.43C568.364 49.446 565.735 51.8047 562.371 53.506C559.007 55.1687 555.121 56 550.713 56H532.269ZM541.665 48.286H550.249C552.956 48.286 555.295 47.7833 557.267 46.778C559.278 45.734 560.824 44.2647 561.907 42.37C563.028 40.4753 563.589 38.252 563.589 35.7C563.589 33.1093 563.028 30.886 561.907 29.03C560.824 27.1353 559.278 25.6853 557.267 24.68C555.295 23.636 552.956 23.114 550.249 23.114H541.665V48.286ZM588.829 31.756H608.375V39.064H588.829V31.756ZM589.525 48.46H611.623V56H580.187V15.4H610.869V22.94H589.525V48.46ZM619.099 56V15.4H636.673C640.308 15.4 643.44 15.9993 646.069 17.198C648.698 18.358 650.728 20.04 652.159 22.244C653.59 24.448 654.305 27.0773 654.305 30.132C654.305 33.148 653.59 35.758 652.159 37.962C650.728 40.1273 648.698 41.79 646.069 42.95C643.44 44.11 640.308 44.69 636.673 44.69H624.319L628.495 40.572V56H619.099ZM644.909 56L634.759 41.268H644.793L655.059 56H644.909ZM628.495 41.616L624.319 37.208H636.151C639.051 37.208 641.216 36.5893 642.647 35.352C644.078 34.076 644.793 32.336 644.793 30.132C644.793 27.8893 644.078 26.1493 642.647 24.912C641.216 23.6747 639.051 23.056 636.151 23.056H624.319L628.495 18.59V41.616Z" fill="white"/>
<path fill-rule="evenodd" clip-rule="evenodd" d="M437.203 27.3235V14H447.034V27.3235L459.322 20.2291L464.237 28.7424L451.949 35.8369L464.19 42.9045L459.275 51.4178L447.034 44.3502V57.5158H437.203V44.3503L424.962 51.4178L420.047 42.9045L432.288 35.8369L420 28.7424L424.915 20.2291L437.203 27.3235Z" fill="#33D3D4"/>
</svg>
